<?xml version="1.0" encoding="UTF-8" standalone="no"?>
<!-- Created with Inkscape (http://www.inkscape.org/) -->

<svg
   xmlns:dc="http://purl.org/dc/elements/1.1/"
   xmlns:cc="http://creativecommons.org/ns#"
   xmlns:rdf="http://www.w3.org/1999/02/22-rdf-syntax-ns#"
   xmlns:svg="http://www.w3.org/2000/svg"
   xmlns="http://www.w3.org/2000/svg"
   xmlns:sodipodi="http://sodipodi.sourceforge.net/DTD/sodipodi-0.dtd"
   xmlns:inkscape="http://www.inkscape.org/namespaces/inkscape"
   id="svg3390"
   version="1.1"
   inkscape:version="0.91 r13725"
   width="848"
   height="600"
   viewBox="0 0 848 600"
   sodipodi:docname="tero.svg">
  <metadata
     id="metadata3396">
    <rdf:RDF>
      <cc:Work
         rdf:about="">
        <dc:format>image/svg+xml</dc:format>
        <dc:type
           rdf:resource="http://purl.org/dc/dcmitype/StillImage" />
        <dc:title></dc:title>
      </cc:Work>
    </rdf:RDF>
  </metadata>
  <defs
     id="defs3394">
    <inkscape:path-effect
       effect="skeletal"
       id="path-effect4224"
       is_visible="true"
       pattern="M 0,5 C 0,2.24 2.24,0 5,0 7.76,0 10,2.24 10,5 10,7.76 7.76,10 5,10 2.24,10 0,7.76 0,5 Z"
       copytype="single_stretched"
       prop_scale="1"
       scale_y_rel="false"
       spacing="0"
       normal_offset="0"
       tang_offset="0"
       prop_units="false"
       vertical_pattern="false"
       fuse_tolerance="0" />
    <inkscape:path-effect
       effect="skeletal"
       id="path-effect4218"
       is_visible="true"
       pattern="M 0,5 C 0,2.24 2.24,0 5,0 7.76,0 10,2.24 10,5 10,7.76 7.76,10 5,10 2.24,10 0,7.76 0,5 Z"
       copytype="single_stretched"
       prop_scale="1"
       scale_y_rel="false"
       spacing="0"
       normal_offset="0"
       tang_offset="0"
       prop_units="false"
       vertical_pattern="false"
       fuse_tolerance="0" />
    <inkscape:path-effect
       effect="skeletal"
       id="path-effect4214"
       is_visible="true"
       pattern="M 0,5 C 0,2.24 2.24,0 5,0 7.76,0 10,2.24 10,5 10,7.76 7.76,10 5,10 2.24,10 0,7.76 0,5 Z"
       copytype="single_stretched"
       prop_scale="1"
       scale_y_rel="false"
       spacing="0"
       normal_offset="0"
       tang_offset="0"
       prop_units="false"
       vertical_pattern="false"
       fuse_tolerance="0" />
    <inkscape:path-effect
       effect="skeletal"
       id="path-effect4210"
       is_visible="true"
       pattern="m 0,1 c 0,-2.76 2.24,-5 5,-5 2.76,0 5,2.24 5,5 C 10,3.76 7.76,6 5,6 2.24,6 0,3.76 0,1 Z"
       copytype="single_stretched"
       prop_scale="1"
       scale_y_rel="false"
       spacing="0"
       normal_offset="0"
       tang_offset="0"
       prop_units="false"
       vertical_pattern="false"
       fuse_tolerance="0" />
    <inkscape:path-effect
       effect="skeletal"
       id="path-effect4206"
       is_visible="true"
       pattern="M 0,5 C 0,2.24 2.24,0 5,0 7.76,0 10,2.24 10,5 10,7.76 7.76,10 5,10 2.24,10 0,7.76 0,5 Z"
       copytype="single_stretched"
       prop_scale="1"
       scale_y_rel="false"
       spacing="0"
       normal_offset="0"
       tang_offset="0"
       prop_units="false"
       vertical_pattern="false"
       fuse_tolerance="0" />
    <inkscape:path-effect
       effect="skeletal"
       id="path-effect4202"
       is_visible="true"
       pattern="M 0,5 C 0,2.24 2.24,0 5,0 7.76,0 10,2.24 10,5 10,7.76 7.76,10 5,10 2.24,10 0,7.76 0,5 Z"
       copytype="single_stretched"
       prop_scale="1"
       scale_y_rel="false"
       spacing="0"
       normal_offset="0"
       tang_offset="0"
       prop_units="false"
       vertical_pattern="false"
       fuse_tolerance="0" />
  </defs>
  <sodipodi:namedview
     pagecolor="#ffffff"
     bordercolor="#666666"
     borderopacity="1"
     objecttolerance="10"
     gridtolerance="10"
     guidetolerance="10"
     inkscape:pageopacity="0"
     inkscape:pageshadow="2"
     inkscape:window-width="1364"
     inkscape:window-height="726"
     id="namedview3392"
     showgrid="false"
     inkscape:zoom="0.70710678"
     inkscape:cx="426.60787"
     inkscape:cy="337.69754"
     inkscape:window-x="1366"
     inkscape:window-y="20"
     inkscape:window-maximized="1"
     inkscape:current-layer="svg3390" />
  <path
     style="fill:#006c2b;fill-rule:evenodd;stroke:none;stroke-width:1px;stroke-linecap:butt;stroke-linejoin:miter;stroke-opacity:1;fill-opacity:0.82634729"
     d="m 685,361 c -0.11241,-0.1918 0.97238,-1.29399 3.81264,-2.12797 1.50185,-0.44595 3.28399,-0.78448 5.57083,-0.99544 4.09764,-0.38024 8.65544,-0.32105 14.805,0.22764 10.71107,0.94928 22.21474,2.92969 37.92343,6.49594 0,0 10e-6,0 10e-6,0 11.30098,2.56241 23.6731,5.741 37.33358,9.718 4.55581,1.32615 9.29333,2.75274 14.09194,4.2893 2.23581,1.87272 4.59096,3.86765 6.92587,6.0645 -41.60699,-35.39604 -98.10574,-80.59433 -163.11074,-122.6469 -8.48481,-19.17682 -21.00469,-36.94421 -36.52201,-52.86615 -7.92597,-8.13266 -16.44152,-15.58534 -25.2664,-22.33331 -13.23537,-10.01409 -27.25305,-18.28672 -41.88409,-24.29164 -14.92902,-6.49254 -30.1131,-10.80699 -45.07551,-11.83238 -2.0662,-9.65465 -5.64519,-18.85635 -10.64713,-26.98499 -4.03212,-7.0828 -9.3584,-13.27353 -15.4218,-18.28463 -12.3377,-10.211454 -27.62719,-15.609604 -42.16573,-16.55048 -7.4346,-0.47217 -14.67379,0.190612 -21.3744,2.02272 -6.76279,1.854623 -12.90446,4.845607 -17.9353,8.870897 -5.44419,4.332573 -9.56581,9.884233 -12.15083,15.750423 -3.58955,8.04577 -4.70809,16.75686 -4.61419,24.52407 -13.69779,10.63181 -24.38268,20.94586 -32.13195,29.02003 C 324.77157,181.8019 318.87658,189.7243 318,189 c -0.12981,-0.10726 4.75456,-8.75013 16.43957,-22.41409 7.171,-8.28846 17.17477,-18.47606 30.26526,-28.63551 -0.72997,-7.77179 -0.15834,-16.57321 3.1951,-24.96346 2.80567,-6.89483 7.39256,-13.463701 13.65293,-18.715969 5.76902,-4.818681 12.72299,-8.450801 20.3572,-10.693822 7.53931,-2.220843 15.63111,-3.147252 23.90119,-2.759865 16.17313,0.739954 33.21398,6.43857 47.3118,17.752822 6.94141,5.578344 13.06097,12.518084 17.76874,20.562254 4.24751,7.88013 6.79562,16.81399 7.50365,26.16605 14.94182,-0.27912 29.78547,2.80686 43.97427,8.18568 15.54361,6.29734 30.3474,14.93667 44.20114,25.39247 9.03222,6.74574 17.73632,14.26851 25.83287,22.55197 15.85029,16.21617 28.60882,34.56285 37.24372,54.5464 62.07086,44.51689 117.27283,93.25972 156.88926,129.3531 -3.28957,-0.0479 -6.92044,-0.003 -10.24115,-0.0115 -4.68256,-1.6316 -9.33081,-3.16788 -13.80774,-4.60951 -13.44853,-4.33 -25.56335,-7.87549 -36.67441,-10.85907 0,0 -2e-5,-1e-5 -2e-5,-1e-5 -15.64618,-4.19608 -26.40699,-6.62529 -37.04718,-8.30519 -6.07979,-0.95578 -10.2498,-1.37759 -14.298,-1.45127 -2.23316,-0.0396 -3.86423,0.0406 -5.35501,0.21777 C 686.44256,360.63632 685.11827,361.20179 685,361 Z"
     id="path4200"
     inkscape:path-effect="#path-effect4202"
     inkscape:original-d="m 685,361 c 16.74698,-9.8152 106.8201,18.41273 121,24 C 764.36174,348.3428 711.43781,303.59038 646,259 621.29265,202.48335 554.22069,149.45288 496,148 484.27243,67.648948 362.96909,62.949418 367,139 c -26.28639,20.40174 -40.57656,39.80565 -49,50"
     inkscape:connector-curvature="0"
     sodipodi:nodetypes="cccccc" />
  <path
     style="fill:#006c2b;fill-rule:evenodd;stroke:none;stroke-width:1px;stroke-linecap:butt;stroke-linejoin:miter;stroke-opacity:1;fill-opacity:0.82634729"
     d="m 378,132 c -0.39267,-0.48478 11.37696,-12.53648 38.19783,-25.6807 12.67916,-6.21903 27.30595,-12.114328 45.60721,-18.109601 14.30841,-4.689148 29.11719,-8.874198 46.24173,-13.392098 42.74564,-7.336917 -2.01459,0.693293 42.03206,-6.84089 -25.71111,8.153176 -52.538,16.660268 -81.9391,25.98371 35.49441,-8.873304 72.61738,-18.153617 111.98384,-27.994715 -7.79158,4.105847 -15.54291,8.48631 -23.42179,13.014144 -1.75202,0.611457 -3.50518,1.228183 -5.25923,1.850314 -9.35475,3.317968 -18.56823,6.730616 -27.65077,10.260544 -11.09283,4.31271 -21.84189,8.709924 -32.29329,13.544862 -4.50202,2.08333 -8.88685,4.21525 -13.12664,6.5118 0,0 -3e-5,1e-5 -3e-5,1e-5 -4.03438,0.36982 -7.88197,0.76891 -11.40767,1.43179 44.22957,-8.61132 83.27132,-16.214567 121.11449,-23.596181 -29.26609,8.656662 -48.88859,14.819671 -73.79172,21.697331 -34.7281,7.87129 -64.0223,13.13025 -85.0161,16.41236 C 404.09437,128.39081 390.05792,128.75299 390,128 c -0.0579,-0.75283 13.863,-2.54153 38.72918,-5.09268 20.66219,-4.3225 49.75725,-10.56855 83.89704,-19.16962 20.92372,-4.240187 49.49062,-10.126578 75.29514,-14.720689 -38.33184,7.603633 -77.96947,15.478299 -122.88551,24.403819 2.80181,-3.93944 5.73356,-7.48569 8.64195,-10.89572 0,0 3e-5,-3e-5 3e-5,-3e-5 4.48112,-2.45116 9.04414,-4.696334 13.65673,-6.849016 10.70464,-4.997331 21.63998,-9.50881 32.8359,-13.880043 9.17855,-3.584795 18.48567,-7.041236 27.9293,-10.390673 1.77077,-0.628049 3.54045,-1.250248 5.30878,-1.866737 8.83263,-1.301504 17.59936,-2.52152 26.46789,-3.504317 -39.38246,9.846133 -76.5165,19.130072 -112.01616,28.005285 29.44565,-9.335284 56.31343,-17.853329 82.0609,-26.016293 -13.5801,5.182239 -27.78015,9.941122 -40.03235,14.083228 -17.21306,4.15921 -31.86324,7.906946 -46.19897,12.148094 -18.32428,5.423678 -32.77967,10.639242 -45.58093,16.198442 C 391.32725,122.0946 378.59897,132.73948 378,132 Z"
     id="path4204"
     inkscape:path-effect="#path-effect4206"
     inkscape:original-d="M 378,132 C 423.32653,95.285743 501.33333,81.333333 550,68 L 468,94 580,66 c -24.00093,7.330556 -92.71608,31.518415 -114,47 L 588,89 c -55.57126,13.11897 -90.21122,23.4384 -159,36 l -39,3"
     inkscape:connector-curvature="0"
     sodipodi:nodetypes="cccccccc" />
  <path
     style="fill:#006c2b;fill-rule:evenodd;stroke:none;stroke-width:1px;stroke-linecap:butt;stroke-linejoin:miter;stroke-opacity:1;fill-opacity:0.82634729"
     d="m 488.25072,369 c 1.50879,-0.44767 7.96869,11.38269 11.98652,30.65602 1.60444,7.70488 2.6654,16.57019 2.4236,26.05278 -0.006,0.24441 -0.0133,0.48851 -0.0212,0.73229 -0.32771,9.63276 -1.94448,18.61757 -3.85824,26.23165 -4.59054,18.28268 -10.39693,29.76268 -11.95546,29.32726 -2.16362,-0.60446 0.42444,-13.081 3.24968,-31.10617 1.1573,-7.40615 2.3055,-15.98775 2.56991,-24.77396 0.007,-0.22339 0.0136,-0.44714 0.0196,-0.67124 0.23078,-8.67437 -0.40986,-16.95954 -1.29331,-24.32979 -2.22763,-18.583 -5.38213,-31.44795 -3.12104,-32.11884 z"
     id="path4208"
     inkscape:path-effect="#path-effect4210"
     inkscape:original-d="m 488.25072,369 c 14.17714,47.78133 11.34267,67.29994 -1.42482,113"
     inkscape:connector-curvature="0"
     sodipodi:nodetypes="cc" />
  <path
     style="fill:#006c2b;fill-rule:evenodd;stroke:none;stroke-width:1px;stroke-linecap:butt;stroke-linejoin:miter;stroke-opacity:1;fill-opacity:0.82634729"
     d="m 557.64112,349.01873 c 0.44905,-0.55807 7.94709,2.23493 14.40977,14.09498 3.1864,5.83289 5.69465,12.95599 7.28384,21.67077 2.90218,15.84823 2.67313,33.0177 0.0674,53.14722 -0.0803,0.62866 -0.16281,1.25839 -0.24745,1.8892 -2.60615,19.42506 -6.94996,37.51554 -11.04274,51.97717 -7.03984,24.88895 -13.71598,40.59297 -15.12629,40.1998 -1.94092,-0.54109 1.80202,-17.13941 7.03184,-42.18897 3.00679,-14.40576 6.7226,-32.6008 9.22653,-51.31584 0.0821,-0.61337 0.16261,-1.22542 0.24163,-1.83621 2.53525,-19.8609 3.40766,-35.49177 1.69526,-50.65717 -0.93486,-8.23422 -2.45466,-14.68737 -4.61704,-20.32502 -4.1964,-10.92243 -9.73281,-15.64924 -8.92278,-16.65593 z"
     id="path4212"
     inkscape:path-effect="#path-effect4214"
     inkscape:original-d="m 557.64112,349.01873 c 39.7162,31.95775 6.64307,142.45066 -4.65544,182.97914"
     inkscape:connector-curvature="0"
     sodipodi:nodetypes="cc" />
  <path
     style="fill:#006c2b;fill-rule:evenodd;stroke:none;stroke-width:1px;stroke-linecap:butt;stroke-linejoin:miter;stroke-opacity:1;fill-opacity:0.82634729"
     d="m 386,165 c 0.89629,0.015 1.13543,9.54259 2.36774,26.44804 1.14736,15.74003 3.47084,42.29157 11.08956,69.50794 3.06745,10.97056 7.17616,22.68383 12.89408,34.08183 0,0 10e-6,1e-5 10e-6,1e-5 4.47597,8.92157 10.01529,17.82842 16.85885,25.97151 5.8077,6.91615 12.59966,13.34135 20.30878,18.81931 7.07933,5.03705 14.94152,9.28206 23.37386,12.61195 12.41657,4.92597 25.89425,7.75512 40.02131,8.95801 4.83206,0.41144 9.6646,0.6262 14.46011,0.6799 21.17738,0.2184 42.03276,-2.7331 61.37386,-6.71417 22.757,-4.69331 44.42711,-11.13612 63.49551,-17.44826 22.71809,-7.52244 44.52706,-15.87635 60.82707,-22.21429 C 746.51231,302.69809 766.43291,294.67398 767,296 c 0.35291,0.8252 -18.67764,10.80898 -51.54721,25.42123 -16.24759,7.22341 -37.46664,16.20422 -60.46819,24.44576 -19.13715,6.85885 -40.98911,13.77234 -64.24821,18.85561 -19.74083,4.32219 -41.25995,7.49502 -63.44801,7.34027 -5.02972,-0.0308 -10.11713,-0.24641 -15.226,-0.68337 -14.9349,-1.27736 -29.36336,-4.38786 -42.82229,-9.76696 -9.14009,-3.66844 -17.6635,-8.3681 -25.35321,-13.9523 -8.36923,-6.08491 -15.66141,-13.15715 -21.83138,-20.74059 -7.25724,-8.92669 -13.00046,-18.53052 -17.52311,-28.07067 0,0 0,-2e-5 0,-2e-5 -5.7749,-12.18095 -9.74514,-24.48956 -12.55838,-35.92925 C 384.96208,234.36717 383.93994,207.74 384.01404,191.59569 384.09256,174.48802 385.34287,164.98901 386,165 Z"
     id="path4216"
     inkscape:path-effect="#path-effect4218"
     inkscape:original-d="m 386,165 c -5.19158,310.33506 255.07515,184.85343 381,131"
     inkscape:connector-curvature="0"
     sodipodi:nodetypes="cc" />
  <path
     style="fill:#006c2b;fill-rule:evenodd;stroke:none;stroke-width:1px;stroke-linecap:butt;stroke-linejoin:miter;stroke-opacity:1;fill-opacity:0.82634729"
     d="m 346,170 c -0.12386,-0.87379 12.58296,-4.46228 34.89142,-6.25583 21.85516,-1.75711 54.43614,-1.72092 89.61331,8.0538 14.76596,4.1062 30.2043,10.0645 44.7818,18.82532 1.73599,1.03971 3.46314,2.1234 5.17438,3.25322 9.5988,6.3375 18.16183,13.77416 25.07982,22.51068 7.03754,8.82823 11.94585,19.0462 13.37631,29.86279 0.65739,5.2132 0.41423,10.41435 -0.65543,15.34566 -1.17734,5.3676 -3.29311,10.30251 -5.96553,14.6379 -7.38061,11.83192 -18.3603,19.59573 -27.74688,24.60293 0,0 -1e-5,0 -1e-5,0 C 495.42818,316.48283 474.89313,314.50684 475,315 c -0.6757,-3.11806 19.41415,-3.78744 46.05172,-20.24027 0,0 10e-6,-10e-6 10e-6,-10e-6 8.44903,-5.25704 18.17486,-12.73295 23.86405,-22.90866 2.0887,-3.68249 3.70533,-7.7737 4.50949,-12.06765 0.74939,-3.93818 0.83371,-8.11239 0.22107,-12.27804 -1.21353,-8.7084 -5.617,-17.20873 -11.80101,-24.99392 -6.17593,-7.71652 -14.0008,-14.3811 -22.90883,-20.27874 -1.58786,-1.05125 -3.19447,-2.06779 -4.81254,-3.05141 -13.5869,-8.22917 -28.18883,-14.01037 -42.26146,-18.21591 C 434.4006,170.95823 402.61627,169.61558 381.14798,169.72085 359.17656,169.82858 346.18798,171.32609 346,170 Z"
     id="path4222"
     inkscape:path-effect="#path-effect4224"
     inkscape:original-d="M 346,170 C 537.39548,142.86911 633.4526,280.66241 475,315"
     inkscape:connector-curvature="0"
     sodipodi:nodetypes="cc" />
</svg>
