<?xml version="1.0" encoding="UTF-8" standalone="no"?>
<!-- Created with Inkscape (http://www.inkscape.org/) -->

<svg
   xmlns:dc="http://purl.org/dc/elements/1.1/"
   xmlns:cc="http://creativecommons.org/ns#"
   xmlns:rdf="http://www.w3.org/1999/02/22-rdf-syntax-ns#"
   xmlns:svg="http://www.w3.org/2000/svg"
   xmlns="http://www.w3.org/2000/svg"
   xmlns:sodipodi="http://sodipodi.sourceforge.net/DTD/sodipodi-0.dtd"
   xmlns:inkscape="http://www.inkscape.org/namespaces/inkscape"
   id="svg3390"
   version="1.1"
   inkscape:version="0.91 r13725"
   width="848"
   height="600"
   viewBox="0 0 848 600"
   sodipodi:docname="tero_without_desc.svg">
  <metadata
     id="metadata3396">
    <rdf:RDF>
      <cc:Work
         rdf:about="">
        <dc:format>image/svg+xml</dc:format>
        <dc:type
           rdf:resource="http://purl.org/dc/dcmitype/StillImage" />
        <dc:title></dc:title>
      </cc:Work>
    </rdf:RDF>
  </metadata>
  <defs
     id="defs3394">
    <inkscape:path-effect
       effect="skeletal"
       id="path-effect4224"
       is_visible="true"
       pattern="m 63.63961,5 c 0,-2.76 2.24,-5 5,-5 2.76,0 5,2.24 5,5 0,2.76 -2.24,5 -5,5 -2.76,0 -5,-2.24 -5,-5 z"
       copytype="single_stretched"
       prop_scale="1"
       scale_y_rel="false"
       spacing="0"
       normal_offset="0"
       tang_offset="0"
       prop_units="false"
       vertical_pattern="false"
       fuse_tolerance="0" />
    <inkscape:path-effect
       effect="skeletal"
       id="path-effect4218"
       is_visible="true"
       pattern="m 63.63961,5 c 0,-2.76 2.24,-5 5,-5 2.76,0 5,2.24 5,5 0,2.76 -2.24,5 -5,5 -2.76,0 -5,-2.24 -5,-5 z"
       copytype="single_stretched"
       prop_scale="1"
       scale_y_rel="false"
       spacing="0"
       normal_offset="0"
       tang_offset="0"
       prop_units="false"
       vertical_pattern="false"
       fuse_tolerance="0" />
    <inkscape:path-effect
       effect="skeletal"
       id="path-effect4214"
       is_visible="true"
       pattern="m 63.63961,5 c 0,-2.76 2.24,-5 5,-5 2.76,0 5,2.24 5,5 0,2.76 -2.24,5 -5,5 -2.76,0 -5,-2.24 -5,-5 z"
       copytype="single_stretched"
       prop_scale="1"
       scale_y_rel="false"
       spacing="0"
       normal_offset="0"
       tang_offset="0"
       prop_units="false"
       vertical_pattern="false"
       fuse_tolerance="0" />
    <inkscape:path-effect
       effect="skeletal"
       id="path-effect4210"
       is_visible="true"
       pattern="m 63.63961,1 c 0,-2.76 2.24,-5 5,-5 2.76,0 5,2.24 5,5 0,2.76 -2.24,5 -5,5 -2.76,0 -5,-2.24 -5,-5 z"
       copytype="single_stretched"
       prop_scale="1"
       scale_y_rel="false"
       spacing="0"
       normal_offset="0"
       tang_offset="0"
       prop_units="false"
       vertical_pattern="false"
       fuse_tolerance="0" />
    <inkscape:path-effect
       effect="skeletal"
       id="path-effect4206"
       is_visible="true"
       pattern="m 63.63961,5 c 0,-2.76 2.24,-5 5,-5 2.76,0 5,2.24 5,5 0,2.76 -2.24,5 -5,5 -2.76,0 -5,-2.24 -5,-5 z"
       copytype="single_stretched"
       prop_scale="1"
       scale_y_rel="false"
       spacing="0"
       normal_offset="0"
       tang_offset="0"
       prop_units="false"
       vertical_pattern="false"
       fuse_tolerance="0" />
    <inkscape:path-effect
       effect="skeletal"
       id="path-effect4202"
       is_visible="true"
       pattern="m 63.63961,5 c 0,-2.76 2.24,-5 5,-5 2.76,0 5,2.24 5,5 0,2.76 -2.24,5 -5,5 -2.76,0 -5,-2.24 -5,-5 z"
       copytype="single_stretched"
       prop_scale="1"
       scale_y_rel="false"
       spacing="0"
       normal_offset="0"
       tang_offset="0"
       prop_units="false"
       vertical_pattern="false"
       fuse_tolerance="0" />
  </defs>
  <sodipodi:namedview
     pagecolor="#ffffff"
     bordercolor="#666666"
     borderopacity="1"
     objecttolerance="10"
     gridtolerance="10"
     guidetolerance="10"
     inkscape:pageopacity="0"
     inkscape:pageshadow="2"
     inkscape:window-width="1364"
     inkscape:window-height="726"
     id="namedview3392"
     showgrid="false"
     inkscape:zoom="0.70710678"
     inkscape:cx="426.60787"
     inkscape:cy="337.69754"
     inkscape:window-x="1366"
     inkscape:window-y="20"
     inkscape:window-maximized="1"
     inkscape:current-layer="svg3390"
     inkscape:snap-text-baseline="true" />
  <path
     style="fill:#006c2b;fill-opacity:0.82634732;fill-rule:evenodd;stroke:none;stroke-width:1px;stroke-linecap:butt;stroke-linejoin:miter;stroke-opacity:1"
     d="m 690.37291,331.55894 c -0.22312,-0.38069 1.25307,-1.71549 4.90862,-2.16635 2.17186,-0.30522 4.64228,-0.36471 7.89675,-0.17089 5.65753,0.33089 11.84695,1.25319 20.12751,2.98257 0,0 10e-6,0 10e-6,0 5.982,1.24641 12.5396,2.82797 19.76616,4.83358 2.41165,0.66913 4.92133,1.39248 7.46933,2.17698 0.89642,1.42151 1.87151,2.96286 2.8509,4.62223 -22.31218,-18.40271 -52.3256,-41.34951 -87.15171,-62.82917 -4.42106,-9.88124 -10.94057,-19.07617 -19.01209,-27.36942 -4.12265,-4.23591 -8.55078,-8.13387 -13.13687,-11.6788 -6.80517,-5.15512 -13.98145,-9.41332 -21.44987,-12.49803 -8.01736,-3.67464 -16.07351,-6.23238 -23.93758,-7.08065 -2.00019,-9.29964 -7.11262,-17.77382 -13.88194,-23.4319 -6.06258,-5.10179 -13.67791,-7.866 -20.92628,-8.40783 -7.51889,-0.47666 -14.57003,1.21073 -19.47298,5.11425 -2.66582,2.05734 -4.72035,4.73204 -6.02574,7.56907 -1.94129,4.14418 -2.65901,8.69856 -2.76048,12.77711 -7.33584,5.69409 -13.11615,11.14654 -17.32061,15.33423 0,0 0,0 0,0 -6.6788,6.46466 -10.01052,10.45869 -10.71211,9.87898 -0.3049,-0.25193 2.0164,-4.96626 7.98846,-12.3627 0,0 10e-6,-1e-5 10e-6,-1e-5 3.62749,-4.40299 8.72406,-9.72695 15.45391,-14.9497 -0.53457,-4.08313 -0.36381,-8.72784 1.34139,-13.21651 1.52605,-3.86568 4.04583,-7.55755 7.52784,-10.53461 6.41937,-5.36815 15.19282,-8.11447 24.42167,-7.67432 8.88298,0.34092 18.24964,3.40558 26.07234,9.61018 7.27996,5.78191 12.24181,14.70799 13.0854,24.89058 7.84348,-0.45625 15.55921,0.87305 22.83635,3.43395 8.381,3.37713 16.34338,8.00204 23.76693,13.59886 4.79342,3.54269 9.41009,7.51074 13.70333,11.89746 8.40449,8.58748 15.16265,18.36171 19.7338,29.04967 31.88915,23.93885 60.61142,50.44045 80.93023,69.53537 -2.04417,0.49193 -4.07473,0.98579 -6.16618,1.43079 -2.43196,-0.87953 -4.85235,-1.71258 -7.18513,-2.49718 -7.01512,-2.35884 -13.31442,-4.30684 -19.107,-5.97465 0,0 0,0 0,0 -8.22785,-2.36326 -13.65482,-3.72628 -19.25126,-4.79182 -3.19135,-0.60327 -5.2607,-0.90169 -7.38977,-1.05275 -3.10747,-0.15258 -4.93721,0.0472 -4.99334,-0.0486 z"
     id="path4200"
     inkscape:path-effect="#path-effect4202"
     inkscape:original-d="m 690.37291,331.55894 c 8.79645,-5.15549 56.10791,9.6714 63.55598,12.60615 -21.87075,-19.25442 -49.66936,-42.7609 -84.04097,-66.18227 -12.97768,-29.68571 -48.20764,-57.54029 -78.78841,-58.30342 -6.15998,-42.20488 -69.87529,-44.67334 -67.75803,-4.72731 -13.80709,10.71614 -21.31309,20.90816 -25.73755,26.26281"
     inkscape:connector-curvature="0"
     sodipodi:nodetypes="cccccc" />
  <path
     style="fill:#006c2b;fill-opacity:0.82634732;fill-rule:evenodd;stroke:none;stroke-width:1px;stroke-linecap:butt;stroke-linejoin:miter;stroke-opacity:1"
     d="m 529.11929,211.2753 c -0.44347,-0.54749 5.5147,-7.20715 19.61001,-14.47018 6.6339,-3.42362 14.35123,-6.68069 23.9617,-9.96583 15.16896,-4.09103 27.43836,-5.68147 46.85119,-9.20367 -13.49632,4.28019 -27.5776,8.74599 -43.01012,13.64037 18.64241,-4.6603 38.13885,-9.53398 58.81252,-14.70188 -4.97895,2.41193 -9.95907,4.98898 -14.97725,7.70248 -4.65351,2.51632 -9.26541,5.10978 -13.81043,7.71716 -5.80212,2.25139 -11.40387,4.53391 -16.83344,7.03495 -4.95024,0.50786 -9.51777,0.88242 -13.41749,1.84591 23.0689,-4.44857 43.43437,-8.37779 63.19573,-12.20233 -14.53588,5.10602 -26.03555,9.2194 -38.40268,13.05272 -18.37153,3.95845 -33.82429,6.49196 -44.92086,7.9662 0,0 -10e-6,0 -10e-6,0 -13.29773,0.3843 -20.69786,0.23613 -20.75579,-0.51692 -0.0579,-0.75276 7.22669,-2.03112 20.21415,-3.66845 0,0 10e-6,-1e-5 10e-6,-1e-5 10.74835,-2.50976 26.03519,-6.04006 43.8018,-10.72345 11.47512,-1.95037 25.7444,-4.27807 39.9061,-6.07607 -20.25003,4.04656 -41.21138,8.24721 -64.96675,13.00997 3.63873,-4.51774 7.48876,-8.13722 11.18186,-11.64707 5.68281,-2.66343 11.47084,-5.06023 17.37606,-7.37014 5.03291,-1.12395 10.15948,-2.20345 15.36091,-3.20083 5.60569,-1.0749 11.19688,-2.03496 16.80094,-2.85554 -20.68967,5.17294 -40.19718,10.05025 -58.84484,14.71246 15.47708,-4.90623 29.59925,-9.38298 43.13188,-13.67295 -5.31951,1.96579 -43.7768,14.83472 -44.80868,15.202 -9.63452,2.71365 -17.17838,5.29078 -23.93542,8.05467 -14.05601,5.76048 -20.97302,11.01307 -21.5211,10.33643 z"
     id="path4204"
     inkscape:path-effect="#path-effect4206"
     inkscape:original-d="m 529.11929,211.2753 c 23.80804,-19.28439 64.78158,-26.61297 90.34405,-33.61639 l -43.071,13.65666 58.82868,-14.70717 c -12.60663,3.85042 -48.69968,16.55524 -59.87919,24.68704 l 64.08124,-12.60615 c -29.18914,6.89082 -47.38399,12.31116 -83.51572,18.90922 l -20.48498,1.57577"
     inkscape:connector-curvature="0"
     sodipodi:nodetypes="cccccccc" />
  <path
     style="fill:#006c2b;fill-opacity:0.82634732;fill-rule:evenodd;stroke:none;stroke-width:1px;stroke-linecap:butt;stroke-linejoin:miter;stroke-opacity:1"
     d="m 587.02915,335.76099 c 1.27498,-0.3783 3.57244,2.46923 5.77772,7.73805 2.16969,5.18378 4.3483,13.08475 4.16224,22.10941 -0.003,0.13348 -0.006,0.26684 -0.01,0.40007 -0.3453,8.8159 -2.79101,16.5536 -4.97108,21.52531 -2.2366,5.10064 -4.4281,7.93853 -5.70748,7.5811 -1.35063,-0.37733 -1.56949,-3.92077 -1.11993,-9.33012 0.37532,-4.51604 1.64435,-13.40285 1.80438,-20.09751 0.004,-0.11216 0.008,-0.22451 0.0116,-0.33704 0.23288,-7.26988 -0.70494,-15.10753 -1.06051,-20.18339 -0.3798,-5.42184 -0.24597,-9.0027 1.11287,-9.40588 z"
     id="path4208"
     inkscape:path-effect="#path-effect4210"
     inkscape:original-d="m 587.02915,335.76099 c 7.44663,25.09744 5.95781,35.3497 -0.74839,59.35394"
     inkscape:connector-curvature="0"
     sodipodi:nodetypes="cc" />
  <path
     style="fill:#006c2b;fill-opacity:0.82634732;fill-rule:evenodd;stroke:none;stroke-width:1px;stroke-linecap:butt;stroke-linejoin:miter;stroke-opacity:1"
     d="m 623.47688,325.26571 c 0.54434,-0.67649 4.92916,0.35537 8.87128,6.79557 1.91651,3.11496 3.4691,7.00574 4.4589,11.70215 1.80503,8.50115 1.841,17.85538 0.45384,28.50697 -0.0425,0.33445 -0.0863,0.66941 -0.13136,1.00489 -1.39037,10.35071 -3.82664,19.86994 -6.23138,27.45831 -4.12579,13.03538 -8.3319,21.07085 -9.86658,20.64301 -1.8166,-0.50643 -0.54358,-9.43618 1.77212,-22.63219 1.30952,-7.46317 3.13628,-17.22559 4.41518,-26.79697 0.0425,-0.31804 0.0843,-0.63532 0.12553,-0.9519 1.31827,-10.39561 1.92256,-18.18597 1.30886,-26.01692 -0.33502,-4.22022 -0.90006,-7.43231 -1.7921,-10.35639 -1.67981,-5.49764 -4.09506,-8.4732 -3.38429,-9.35653 z"
     id="path4212"
     inkscape:path-effect="#path-effect4214"
     inkscape:original-d="m 623.47688,325.26571 c 20.86118,16.786 3.48932,74.82307 -2.4453,96.1109"
     inkscape:connector-curvature="0"
     sodipodi:nodetypes="cc" />
  <path
     style="fill:#006c2b;fill-opacity:0.82634732;fill-rule:evenodd;stroke:none;stroke-width:1px;stroke-linecap:butt;stroke-linejoin:miter;stroke-opacity:1"
     d="m 533.32134,228.60875 c 3.07585,0.0515 0.0482,20.2553 8.84485,49.93533 2.96144,9.9268 7.62521,21.39811 15.54992,30.60658 5.65177,6.6383 13.24079,12.27115 22.11331,15.73524 6.27445,2.47984 13.128,3.89908 20.35656,4.51323 2.47236,0.21005 4.95019,0.32266 7.41346,0.3563 10.88353,0.12979 21.68062,-1.36792 31.74466,-3.37805 11.83327,-2.37259 23.17404,-5.64505 33.17273,-8.83074 11.82396,-3.76933 23.50242,-8.03083 32.03497,-11.1385 17.70156,-6.44754 28.37548,-10.19888 28.89211,-8.99084 0.40337,0.94319 -9.38051,6.65418 -26.51005,14.71029 -8.50146,3.99888 -19.54737,8.87581 -31.6761,13.36998 -10.06757,3.73239 -21.58993,7.47552 -33.92544,10.23809 -10.46376,2.35124 -21.92458,4.07029 -33.8188,4.00413 -2.69747,-0.0108 -5.43018,-0.12419 -8.17935,-0.35976 -8.0364,-0.68863 -15.84073,-2.38922 -23.15754,-5.32218 -10.45381,-4.23278 -19.19091,-11.01623 -25.61525,-18.99687 -8.8144,-11.05656 -13.40488,-23.76486 -15.87848,-34.55317 -7.35541,-31.85319 -1.35913,-51.89902 -1.36156,-51.89906 z"
     id="path4216"
     inkscape:path-effect="#path-effect4218"
     inkscape:original-d="m 533.32134,228.60875 c -2.72691,163.00538 133.97977,97.09539 200.12257,68.80855"
     inkscape:connector-curvature="0"
     sodipodi:nodetypes="cc" />
  <path
     style="fill:#006c2b;fill-opacity:0.82634732;fill-rule:evenodd;stroke:none;stroke-width:1px;stroke-linecap:butt;stroke-linejoin:miter;stroke-opacity:1"
     d="m 512.3111,231.23503 c -0.13913,-0.98147 6.46842,-3.36206 18.26603,-4.70461 11.56888,-1.31652 28.87636,-1.60465 47.75803,3.47292 7.92034,2.13312 16.22826,5.30501 24.12017,10.03277 0.93983,0.55943 1.87564,1.14459 2.80376,1.75668 5.20581,3.43323 9.8788,7.52264 13.68866,12.35367 3.89913,4.88469 6.59706,10.65943 7.39992,16.84135 0.71947,6.35009 -0.94213,12.35756 -3.92643,17.08731 -4.27892,6.60762 -10.34227,10.75456 -15.49589,13.32501 0,0 0,0 0,0 -15.88458,8.03108 -26.77823,6.3569 -26.85622,5.99703 -0.49099,-2.26571 9.95775,-3.23553 23.35874,-12.07377 0,0 10e-6,-1e-5 10e-6,-1e-5 4.21655,-2.82059 9.02508,-6.67902 11.61306,-11.63074 1.80153,-3.32898 2.71302,-7.48638 2.03603,-11.44944 -0.58594,-4.07375 -2.77902,-8.13083 -5.82461,-11.97248 -3.06781,-3.81103 -7.00265,-7.12837 -11.51767,-10.12173 -0.80475,-0.53352 -1.62002,-1.05154 -2.44194,-1.55487 -6.90128,-4.19609 -14.37284,-7.19093 -21.59982,-9.42336 -17.16557,-5.30957 -33.67807,-6.32878 -44.85924,-6.66366 -11.46057,-0.34325 -18.34988,-0.0537 -18.52259,-1.27207 z"
     id="path4222"
     inkscape:path-effect="#path-effect4224"
     inkscape:original-d="m 512.3111,231.23503 c 100.53164,-14.25066 150.98622,58.12611 67.75803,76.16213"
     inkscape:connector-curvature="0"
     sodipodi:nodetypes="cc" />
  <text
     xml:space="preserve"
     style="font-style:normal;font-weight:normal;font-size:161.51597595px;line-height:125%;font-family:sans-serif;letter-spacing:0px;word-spacing:0px;fill:#000000;fill-opacity:1;stroke:none;stroke-width:1px;stroke-linecap:butt;stroke-linejoin:miter;stroke-opacity:1"
     x="97.084908"
     y="415.28265"
     id="text4307"
     sodipodi:linespacing="125%"
     transform="scale(1.2237009,0.81719316)"><tspan
       sodipodi:role="line"
       id="tspan4309"
       x="97.084908"
       y="415.28265">tero</tspan></text>
</svg>
